<svg width="83" height="82" viewBox="0 0 83 82" fill="none" xmlns="http://www.w3.org/2000/svg">
<path d="M21.2899 35.048H23.7379L27.4339 45.88L28.3619 46.04V47H23.6419V46.04L24.8419 45.88L24.2179 43.8H20.0739L19.4499 45.896L20.7459 46.04V47H16.6659L16.6499 46.04L17.6099 45.88L21.2899 35.048ZM22.3939 37.752L22.1059 36.504L21.8019 37.768L20.3779 42.68H23.8979L22.3939 37.752ZM28.7803 46.04L30.0443 45.88V36.312L28.8443 36.088V35.112H31.1643C31.3669 35.112 31.5909 35.1067 31.8363 35.096C32.0816 35.0853 32.2683 35.0747 32.3963 35.064C32.9509 35.0213 33.4096 35 33.7723 35C34.8709 35 35.7509 35.112 36.4123 35.336C37.0736 35.56 37.5536 35.9013 37.8523 36.36C38.1509 36.8187 38.3003 37.4213 38.3003 38.168C38.3003 38.904 38.1029 39.5867 37.7083 40.216C37.3136 40.8453 36.7429 41.2773 35.9963 41.512C36.4229 41.6933 36.8016 42.024 37.1323 42.504C37.4629 42.984 37.8149 43.608 38.1883 44.376C38.4549 44.8987 38.6576 45.2773 38.7963 45.512C38.9456 45.736 39.0896 45.864 39.2283 45.896L39.7563 46.056V47H37.0363C36.8656 47 36.6843 46.8293 36.4923 46.488C36.3109 46.136 36.0709 45.5867 35.7723 44.84C35.4203 43.9653 35.1163 43.2827 34.8603 42.792C34.6043 42.3013 34.3323 41.9973 34.0443 41.88H32.3963V45.88L33.8683 46.04V47H28.7803V46.04ZM33.8683 40.904C34.4763 40.904 34.9509 40.6853 35.2923 40.248C35.6336 39.8107 35.8043 39.1547 35.8043 38.28C35.8043 37.5013 35.6336 36.9253 35.2923 36.552C34.9616 36.1787 34.3856 35.992 33.5643 35.992C33.2656 35.992 33.0096 36.008 32.7963 36.04C32.5936 36.0613 32.4603 36.072 32.3963 36.072V40.872C32.5243 40.8933 32.8336 40.904 33.3243 40.904H33.8683ZM44.1995 36.168L41.9115 36.248L41.2875 39.736H39.9435L40.2155 35.112H50.5355L50.7275 39.736H49.4635L48.8395 36.248L46.5835 36.168V45.88L48.8235 46.04V47H42.1515V46.04L44.1995 45.88V36.168Z" fill="#8D8D8D"/>
<path d="M10.5436 51.018L8.78359 50.754V49.654H12.8756L20.2016 60.39L21.4336 62.722V51.018L19.5196 50.754V49.654H24.7116V50.754L22.9516 51.018V66H21.2136L13.7336 55.022L12.0396 52.118V64.702L14.1296 64.922V66H8.78359V64.922L10.5436 64.68V51.018ZM31.6598 66.242C29.8851 66.242 28.5285 65.6627 27.5898 64.504C26.6658 63.3453 26.2038 61.798 26.2038 59.862C26.2038 58.586 26.4458 57.464 26.9298 56.496C27.4138 55.528 28.0885 54.78 28.9538 54.252C29.8338 53.724 30.8311 53.46 31.9458 53.46C33.3098 53.46 34.3658 53.8413 35.1138 54.604C35.8765 55.352 36.2798 56.43 36.3238 57.838C36.3238 58.7327 36.2725 59.4147 36.1698 59.884H28.6018C28.6311 61.336 28.9685 62.5093 29.6138 63.404C30.2591 64.284 31.1758 64.724 32.3638 64.724C32.9505 64.724 33.5591 64.6213 34.1898 64.416C34.8351 64.196 35.3338 63.9393 35.6858 63.646L36.1038 64.614C35.6785 65.054 35.0478 65.4353 34.2118 65.758C33.3758 66.0807 32.5251 66.242 31.6598 66.242ZM33.9038 58.718C33.9478 58.41 33.9698 58.0947 33.9698 57.772C33.9551 56.8187 33.7498 56.0707 33.3538 55.528C32.9725 54.9707 32.3638 54.692 31.5278 54.692C30.6771 54.692 29.9951 55 29.4818 55.616C28.9831 56.232 28.6971 57.266 28.6238 58.718H33.9038ZM42.5926 59.906L38.8746 55.088L37.6426 54.824V53.79H43.2306V54.824L41.6906 55.088L43.6926 57.926L44.3086 58.872L44.9026 57.926L46.9926 55.088L45.3866 54.824V53.79H50.0286V54.824L48.7086 55.088L45.0566 59.642L48.9506 64.746L50.2266 64.944V66H44.5726V64.944L46.0246 64.724L44.0226 61.754L43.3626 60.764L42.7686 61.732L40.6566 64.724L42.4826 64.944V66H37.3566V64.944L38.8306 64.724L42.5926 59.906ZM61.3086 66.198C60.8979 66.198 60.5899 66.1173 60.3846 65.956C60.1939 65.7947 60.0986 65.5307 60.0986 65.164V64.416C59.6146 64.9 59.0059 65.3253 58.2726 65.692C57.5539 66.0587 56.8279 66.242 56.0946 66.242C54.7306 66.242 53.7626 65.8753 53.1906 65.142C52.6186 64.4087 52.3326 63.1987 52.3326 61.512V55.132L51.1006 54.78V53.812L54.1806 53.526H54.2026L54.6206 53.79V61.336C54.6206 62.1867 54.6793 62.854 54.7966 63.338C54.9286 63.8073 55.1486 64.1593 55.4566 64.394C55.7793 64.614 56.2413 64.724 56.8426 64.724C57.4293 64.724 57.9793 64.5993 58.4926 64.35C59.0059 64.1007 59.4533 63.8073 59.8346 63.47V55.132L58.2506 54.78V53.812L61.5946 53.526H61.6166L62.1226 53.79V64.878H63.4426L63.4206 65.868C63.0099 65.9707 62.6506 66.0513 62.3426 66.11C62.0493 66.1687 61.7046 66.198 61.3086 66.198ZM67.245 64.24C67.3917 64.46 67.6997 64.658 68.169 64.834C68.653 65.01 69.159 65.098 69.687 65.098C70.523 65.098 71.139 64.9367 71.535 64.614C71.931 64.2913 72.129 63.844 72.129 63.272C72.129 62.876 72.0043 62.5313 71.755 62.238C71.5057 61.9447 71.1537 61.688 70.699 61.468C70.259 61.2333 69.621 60.9547 68.785 60.632C67.6557 60.2067 66.827 59.7007 66.299 59.114C65.7857 58.5127 65.529 57.728 65.529 56.76C65.529 56.1147 65.7197 55.55 66.101 55.066C66.497 54.582 67.0323 54.208 67.707 53.944C68.3963 53.6653 69.159 53.526 69.995 53.526C70.6697 53.526 71.2563 53.5773 71.755 53.68C72.2683 53.7827 72.679 53.8853 72.987 53.988C73.295 54.0907 73.5003 54.1567 73.603 54.186V56.914H72.261L71.821 55.286C71.733 55.11 71.4983 54.9633 71.117 54.846C70.7357 54.714 70.3103 54.648 69.841 54.648C69.181 54.648 68.6457 54.7947 68.235 55.088C67.839 55.3813 67.641 55.7773 67.641 56.276C67.641 56.716 67.7437 57.0827 67.949 57.376C68.169 57.6547 68.4403 57.882 68.763 58.058C69.0857 58.234 69.5257 58.4393 70.083 58.674L70.523 58.85C71.3443 59.1727 72.0117 59.4807 72.525 59.774C73.0383 60.0673 73.4637 60.456 73.801 60.94C74.153 61.4093 74.329 61.9887 74.329 62.678C74.329 63.7633 73.9037 64.6287 73.053 65.274C72.217 65.9193 71.0657 66.242 69.599 66.242C68.8803 66.242 68.125 66.1467 67.333 65.956C66.5557 65.7507 65.9177 65.5453 65.419 65.34V62.524H66.849L67.245 64.24Z" fill="black"/>
<rect x="1.5" y="1" width="80" height="80" stroke="#676767" stroke-width="2"/>
<path d="M13.3449 17.2L9.90492 17.32L9.20492 21.5H7.88492L8.22492 16.14H20.6849L20.9249 21.5H19.6649L19.0049 17.32L15.5449 17.2V29.82L18.3849 30.02V31H10.7449V30.02L13.3449 29.82V17.2ZM23.3726 16.08L21.6926 15.86V15L24.9526 14.62H24.9926L25.4326 14.92V19.56L25.3526 21.26C25.7792 20.8733 26.3659 20.5067 27.1126 20.16C27.8592 19.8133 28.6126 19.64 29.3726 19.64C30.2126 19.64 30.8659 19.8 31.3326 20.12C31.7992 20.44 32.1259 20.9333 32.3126 21.6C32.4992 22.2533 32.5926 23.14 32.5926 24.26V29.84L33.9926 30.02V31H29.2126V30.02L30.5126 29.84V24.24C30.5126 23.4533 30.4592 22.84 30.3526 22.4C30.2459 21.9467 30.0459 21.6133 29.7526 21.4C29.4592 21.1733 29.0192 21.06 28.4326 21.06C27.9526 21.06 27.4392 21.18 26.8926 21.42C26.3459 21.66 25.8659 21.94 25.4526 22.26V29.84L26.8326 30.02V31H22.1726V30.02L23.3726 29.86V16.08ZM40.3962 31.22C38.7828 31.22 37.5495 30.6933 36.6962 29.64C35.8562 28.5867 35.4362 27.18 35.4362 25.42C35.4362 24.26 35.6562 23.24 36.0962 22.36C36.5362 21.48 37.1495 20.8 37.9362 20.32C38.7362 19.84 39.6428 19.6 40.6562 19.6C41.8962 19.6 42.8562 19.9467 43.5362 20.64C44.2295 21.32 44.5962 22.3 44.6362 23.58C44.6362 24.3933 44.5895 25.0133 44.4962 25.44H37.6162C37.6428 26.76 37.9495 27.8267 38.5362 28.64C39.1228 29.44 39.9562 29.84 41.0362 29.84C41.5695 29.84 42.1228 29.7467 42.6962 29.56C43.2828 29.36 43.7362 29.1267 44.0562 28.86L44.4362 29.74C44.0495 30.14 43.4762 30.4867 42.7162 30.78C41.9562 31.0733 41.1828 31.22 40.3962 31.22ZM42.4362 24.38C42.4762 24.1 42.4962 23.8133 42.4962 23.52C42.4828 22.6533 42.2962 21.9733 41.9362 21.48C41.5895 20.9733 41.0362 20.72 40.2762 20.72C39.5028 20.72 38.8828 21 38.4162 21.56C37.9628 22.12 37.7028 23.06 37.6362 24.38H42.4362Z" fill="black"/>
</svg>
