<svg width="124" height="124" viewBox="0 0 124 124" fill="none" xmlns="http://www.w3.org/2000/svg">
<g clip-path="url(#clip0_152_323)">
<path d="M5.8125 124H118.188C121.392 124 124 121.392 124 118.188V5.8125C124 2.60787 121.392 0 118.188 0H5.8125C2.60787 0 0 2.60787 0 5.8125V118.188C0 121.392 2.60787 124 5.8125 124ZM3.875 5.8125C3.875 5.29864 4.07913 4.80583 4.44248 4.44248C4.80583 4.07913 5.29864 3.875 5.8125 3.875H118.188C118.701 3.875 119.194 4.07913 119.558 4.44248C119.921 4.80583 120.125 5.29864 120.125 5.8125V118.188C120.125 118.701 119.921 119.194 119.558 119.558C119.194 119.921 118.701 120.125 118.188 120.125H5.8125C5.29864 120.125 4.80583 119.921 4.44248 119.558C4.07913 119.194 3.875 118.701 3.875 118.188V5.8125Z" fill="black"/>
<path d="M79.4375 48.4375C83.7116 48.4375 87.1875 44.9616 87.1875 40.6875C87.1875 36.4134 83.7116 32.9375 79.4375 32.9375C75.1634 32.9375 71.6875 36.4134 71.6875 40.6875C71.6875 44.9616 75.1634 48.4375 79.4375 48.4375ZM79.4375 36.8125C80.205 36.8117 80.9555 37.0387 81.5939 37.4646C82.2324 37.8905 82.7302 38.4963 83.0242 39.2052C83.3183 39.9141 83.3955 40.6944 83.2459 41.4472C83.0964 42.1999 82.7269 42.8914 82.1841 43.4342C81.6414 43.9769 80.9499 44.3464 80.1972 44.4959C79.4444 44.6454 78.6641 44.5683 77.9552 44.2742C77.2463 43.9802 76.6405 43.4824 76.2146 42.8439C75.7887 42.2055 75.5617 41.455 75.5625 40.6875C75.5625 38.5524 77.2985 36.8125 79.4375 36.8125Z" fill="black"/>
<path d="M17.4375 96.875H106.562C107.076 96.875 107.569 96.6709 107.933 96.3075C108.296 95.9442 108.5 95.4514 108.5 94.9375V17.4375C108.5 16.9236 108.296 16.4308 107.933 16.0675C107.569 15.7041 107.076 15.5 106.562 15.5H17.4375C16.9236 15.5 16.4308 15.7041 16.0675 16.0675C15.7041 16.4308 15.5 16.9236 15.5 17.4375V94.9375C15.5 95.4514 15.7041 95.9442 16.0675 96.3075C16.4308 96.6709 16.9236 96.875 17.4375 96.875ZM19.375 93V71.1527C19.4602 71.0907 19.5571 71.0559 19.6346 70.9784L39.4591 51.1539C39.9666 50.6697 40.641 50.3995 41.3424 50.3995C42.0438 50.3995 42.7182 50.6697 43.2256 51.1539L72.3695 80.2978C72.7265 80.6576 73.2106 80.8626 73.7175 80.8684C74.2243 80.8742 74.713 80.6803 75.0781 80.3287L90.0589 66.0998C90.5466 65.607 91.208 65.3249 91.9012 65.314C92.5944 65.3032 93.2643 65.5644 93.7672 66.0416L104.625 77.8681L104.629 77.872V93H19.375ZM104.625 19.375V72.1448L96.5611 63.364C95.9574 62.7543 95.2385 62.2707 94.4462 61.9414C93.6539 61.6121 92.804 61.4437 91.946 61.4459H91.9421C91.0905 61.4422 90.2464 61.6066 89.4585 61.9298C88.6705 62.253 87.9541 62.7285 87.3502 63.3291L73.7723 76.2251L45.9653 48.4143C43.4891 45.942 39.1879 45.9459 36.7195 48.4143L19.375 65.7626V19.375H104.625Z" fill="black"/>
</g>
<defs>
<clipPath id="clip0_152_323">
<rect width="124" height="124" fill="white"/>
</clipPath>
</defs>
</svg>
