<svg width="101" height="124" viewBox="0 0 101 124" fill="none" xmlns="http://www.w3.org/2000/svg">
<path opacity="0.978" fill-rule="evenodd" clip-rule="evenodd" d="M46.1974 0.147031C59.5421 -0.917463 69.725 3.79818 76.746 14.294C80.1479 20.6038 81.3432 27.277 80.3315 34.3133C84.2529 34.2688 88.1729 34.3133 92.092 34.4468C96.7293 35.5591 99.6454 38.2726 100.841 42.588C101.125 67.3346 101.029 92.0696 100.554 116.793C99.0892 120.558 96.2687 122.916 92.092 123.866C64.3639 124.045 36.6361 124.045 8.90801 123.866C4.73138 122.916 1.91075 120.558 0.446196 116.793C-0.0290423 92.0696 -0.124647 67.3346 0.159355 42.588C1.35454 38.2726 4.27074 35.5591 8.90801 34.4468C12.8271 34.3133 16.7471 34.2688 20.6685 34.3133C18.9997 23.086 22.6331 13.6993 31.5685 6.15283C35.9325 3.03585 40.8088 1.03391 46.1974 0.147031ZM50.2132 4.41782C61.4025 4.92693 69.2907 9.90952 73.8776 19.3656C74.3491 20.5873 74.7318 21.833 75.0249 23.1025C75.5977 26.8184 75.8367 30.5553 75.742 34.3133C58.9139 34.3133 42.0861 34.3133 25.258 34.3133C24.3599 26.9655 26.033 20.2035 30.2777 14.0271C35.4179 8.09887 42.0631 4.89578 50.2132 4.41782ZM11.4896 38.5841C14.5493 38.5841 17.6088 38.5841 20.6685 38.5841C20.6206 46.0586 20.6685 53.5324 20.8119 61.0058C21.2505 61.8108 21.9676 62.1666 22.9632 62.0735C23.9589 62.1666 24.676 61.8108 25.1145 61.0058C25.258 53.5324 25.3059 46.0586 25.258 38.5841C42.0861 38.5841 58.9139 38.5841 75.742 38.5841C75.6941 46.0586 75.742 53.5324 75.8854 61.0058C76.324 61.8108 77.0411 62.1666 78.0368 62.0735C79.0324 62.1666 79.7495 61.8108 80.1881 61.0058C80.3315 53.5324 80.3794 46.0586 80.3315 38.5841C83.9781 38.4843 87.6115 38.6178 91.2315 38.9845C93.5741 39.7407 95.1517 41.2088 95.9643 43.3888C96.2945 55.3029 96.4379 67.2257 96.3946 79.1566C96.3467 90.5455 96.2991 101.934 96.2512 113.323C95.7254 117.015 93.4783 119.106 89.5104 119.596C63.5034 119.774 37.4966 119.774 11.4896 119.596C7.52171 119.106 5.27468 117.015 4.74882 113.323C4.55758 90.5455 4.55758 67.7678 4.74882 44.9903C5.32597 41.295 7.57277 39.1596 11.4896 38.5841Z" fill="black"/>
</svg>
