<svg width="52" height="57" viewBox="0 0 52 57" fill="none" xmlns="http://www.w3.org/2000/svg">
<path d="M6.00229 57C4.29124 57 2.86371 56.5123 1.71971 55.537C0.575714 54.5617 0.00247619 53.3446 0 51.8858V17.7808C0 16.3242 0.573237 15.1082 1.71971 14.1328C2.86619 13.1575 4.29371 12.6688 6.00229 12.6667H13V11.0833C13 8.00533 14.2641 5.38861 16.7923 3.23317C19.3205 1.07772 22.3897 0 26 0C29.6103 0 32.6795 1.07772 35.2077 3.23317C37.7359 5.38861 39 8.00533 39 11.0833V12.6667H46.0014C47.71 12.6667 49.1363 13.1554 50.2803 14.1328C51.4243 15.1103 51.9975 16.3273 52 17.784V51.8858C52 53.3425 51.4268 54.5595 50.2803 55.537C49.1338 56.5144 47.7075 57.0021 46.0014 57H6.00229ZM6.00229 53.8333H46.0014C46.571 53.8333 47.0947 53.6307 47.5726 53.2253C48.0505 52.82 48.2882 52.3724 48.2857 51.8827V17.784C48.2857 17.2963 48.048 16.8488 47.5726 16.4413C47.0971 16.0339 46.5722 15.8312 45.9977 15.8333H39V23.75C39 24.2018 38.823 24.5786 38.4689 24.8805C38.1148 25.1824 37.6728 25.3333 37.1429 25.3333C36.613 25.3333 36.171 25.1824 35.8169 24.8805C35.4628 24.5786 35.2857 24.2018 35.2857 23.75V15.8333H16.7143V23.75C16.7143 24.2018 16.5372 24.5786 16.1831 24.8805C15.829 25.1824 15.387 25.3333 14.8571 25.3333C14.3272 25.3333 13.8852 25.1824 13.5311 24.8805C13.177 24.5786 13 24.2018 13 23.75V15.8333H6.00229C5.43029 15.8333 4.90533 16.036 4.42743 16.4413C3.94952 16.8467 3.71181 17.2942 3.71429 17.784V51.8858C3.71429 52.3714 3.952 52.8179 4.42743 53.2253C4.90286 53.6328 5.42657 53.8354 5.99857 53.8333M16.7143 12.6667H35.2857V11.0833C35.2857 8.854 34.3918 6.97722 32.604 5.453C30.8162 3.92878 28.6149 3.16667 26 3.16667C23.3851 3.16667 21.1838 3.92878 19.396 5.453C17.6082 6.97722 16.7143 8.854 16.7143 11.0833V12.6667Z" fill="#414141"/>
</svg>
