<svg width="124" height="124" viewBox="0 0 124 124" fill="none" xmlns="http://www.w3.org/2000/svg">
<path d="M123.432 24.7019C123.208 24.4335 122.929 24.2175 122.612 24.0692C122.296 23.9209 121.951 23.8438 121.602 23.8435H23.4501L19.4682 1.95517C19.3679 1.40683 19.0786 0.910976 18.6506 0.553787C18.2227 0.196597 17.6831 0.000650391 17.1256 0H2.38435C1.75198 0 1.14551 0.251208 0.698361 0.698361C0.251208 1.14551 0 1.75198 0 2.38435C0 3.01672 0.251208 3.62319 0.698361 4.07034C1.14551 4.5175 1.75198 4.7687 2.38435 4.7687H15.1347L19.1225 26.7047L30.6926 90.355C31.226 93.2639 32.8215 95.8707 35.1692 97.669C32.7097 99.2542 30.7954 101.556 29.6845 104.263C28.5736 106.97 28.3195 109.952 28.9565 112.808C29.5935 115.664 31.0909 118.256 33.2468 120.234C35.4027 122.213 38.1134 123.483 41.0134 123.872C43.9135 124.262 46.8633 123.754 49.4652 122.415C52.067 121.076 54.1958 118.971 55.5644 116.385C56.933 113.799 57.4756 110.855 57.119 107.951C56.7625 105.046 55.524 102.321 53.5704 100.143H89.4907C87.3066 102.585 86.0268 105.702 85.8652 108.974C85.7035 112.246 86.6698 115.475 88.6025 118.12C90.5352 120.765 93.3173 122.667 96.4838 123.508C99.6502 124.348 103.009 124.076 105.999 122.738C108.989 121.399 111.43 119.075 112.912 116.153C114.394 113.231 114.829 109.89 114.143 106.686C113.457 103.483 111.693 100.611 109.145 98.5524C106.597 96.4935 103.419 95.3715 100.143 95.3741H42.4236C40.7494 95.3733 39.1285 94.7852 37.8432 93.7123C36.5579 92.6395 35.6897 91.1497 35.3897 89.5026L33.0054 76.2993H104.971C107.763 76.2997 110.467 75.3202 112.611 73.5315C114.754 71.7428 116.202 69.2584 116.702 66.5115L123.951 26.6571C124.013 26.3131 123.998 25.9596 123.909 25.6218C123.819 25.2839 123.656 24.9698 123.432 24.7019ZM52.4557 109.68C52.4557 111.567 51.8964 113.41 50.8484 114.979C49.8004 116.547 48.3109 117.77 46.5681 118.492C44.8254 119.213 42.9078 119.402 41.0577 119.034C39.2076 118.666 37.5082 117.758 36.1744 116.424C34.8405 115.09 33.9322 113.391 33.5642 111.541C33.1962 109.691 33.3851 107.773 34.1069 106.03C34.8288 104.288 36.0512 102.798 37.6196 101.75C39.1881 100.702 41.032 100.143 42.9183 100.143C45.4478 100.143 47.8737 101.148 49.6623 102.936C51.4509 104.725 52.4557 107.151 52.4557 109.68ZM109.68 109.68C109.68 111.567 109.121 113.41 108.073 114.979C107.025 116.547 105.535 117.77 103.793 118.492C102.05 119.213 100.132 119.402 98.2821 119.034C96.4321 118.666 94.7326 117.758 93.3988 116.424C92.065 115.09 91.1566 113.391 90.7886 111.541C90.4206 109.691 90.6095 107.773 91.3314 106.03C92.0532 104.288 93.2757 102.798 94.8441 101.75C96.4125 100.702 98.2565 100.143 100.143 100.143C102.672 100.143 105.098 101.148 106.887 102.936C108.675 104.725 109.68 107.151 109.68 109.68ZM112.011 65.6591C111.711 67.3072 110.842 68.7977 109.555 69.8707C108.269 70.9437 106.646 71.5311 104.971 71.5306H32.1172L24.3144 28.6122H118.747L112.011 65.6591Z" fill="black"/>
</svg>
