<svg width="24" height="27" viewBox="0 0 24 27" fill="none" xmlns="http://www.w3.org/2000/svg">
<path d="M12 14C13.5913 14 15.1174 13.3679 16.2426 12.2426C17.3679 11.1174 18 9.5913 18 8C18 6.4087 17.3679 4.88258 16.2426 3.75736C15.1174 2.63214 13.5913 2 12 2C10.4087 2 8.88258 2.63214 7.75736 3.75736C6.63214 4.88258 6 6.4087 6 8C6 9.5913 6.63214 11.1174 7.75736 12.2426C8.88258 13.3679 10.4087 14 12 14ZM12 16C9.87827 16 7.84344 15.1571 6.34315 13.6569C4.84285 12.1566 4 10.1217 4 8C4 5.87827 4.84285 3.84344 6.34315 2.34315C7.84344 0.842855 9.87827 0 12 0C14.1217 0 16.1566 0.842855 17.6569 2.34315C19.1571 3.84344 20 5.87827 20 8C20 10.1217 19.1571 12.1566 17.6569 13.6569C16.1566 15.1571 14.1217 16 12 16ZM22 26V23C22 22.2044 21.6839 21.4413 21.1213 20.8787C20.5587 20.3161 19.7956 20 19 20H5C4.20435 20 3.44129 20.3161 2.87868 20.8787C2.31607 21.4413 2 22.2044 2 23V26C2 26.2652 1.89464 26.5196 1.70711 26.7071C1.51957 26.8946 1.26522 27 1 27C0.734784 27 0.48043 26.8946 0.292893 26.7071C0.105357 26.5196 0 26.2652 0 26V23C0 21.6739 0.526784 20.4021 1.46447 19.4645C2.40215 18.5268 3.67392 18 5 18H19C20.3261 18 21.5979 18.5268 22.5355 19.4645C23.4732 20.4021 24 21.6739 24 23V26C24 26.2652 23.8946 26.5196 23.7071 26.7071C23.5196 26.8946 23.2652 27 23 27C22.7348 27 22.4804 26.8946 22.2929 26.7071C22.1054 26.5196 22 26.2652 22 26Z" fill="#1C1C1C"/>
</svg>
