<svg width="130" height="125" viewBox="0 0 130 125" fill="none" xmlns="http://www.w3.org/2000/svg">
<path d="M121.409 37.16H89.6425C92.6025 35.8521 95.3514 34.1109 97.7988 31.9937C99.4962 30.4843 100.863 28.6406 101.815 26.578C102.766 24.5155 103.281 22.2786 103.327 20.0077C103.4 17.4912 102.958 14.9862 102.029 12.6464C101.099 10.3066 99.7015 8.18146 97.9212 6.40122C96.141 4.62097 94.0158 3.22321 91.676 2.29367C89.3363 1.36413 86.8313 0.922409 84.3147 0.995607C82.0438 1.04171 79.8069 1.55654 77.7444 2.5078C75.6818 3.45907 73.8381 4.82624 72.3288 6.52359C68.5121 10.831 66.1098 16.443 64.5793 21.8224C63.0616 16.443 60.6593 10.8439 56.8297 6.52359C55.3204 4.82624 53.4767 3.45907 51.4141 2.5078C49.3516 1.55654 47.1147 1.04171 44.8438 0.995607C42.3273 0.922409 39.8223 1.36413 37.4825 2.29367C35.1427 3.22321 33.0176 4.62097 31.2373 6.40122C29.4571 8.18146 28.0593 10.3066 27.1298 12.6464C26.2002 14.9862 25.7585 17.4912 25.8317 20.0077C25.8778 22.2786 26.3926 24.5155 27.3439 26.578C28.2952 28.6406 29.6623 30.4843 31.3597 31.9937C33.8071 34.1109 36.556 35.8521 39.5161 37.16H7.74951C5.69421 37.16 3.72309 37.9765 2.26978 39.4298C0.816464 40.8831 0 42.8542 0 44.9095V65.5749C0 67.6302 0.816464 69.6013 2.26978 71.0546C3.72309 72.5079 5.69421 73.3244 7.74951 73.3244H10.3327V117.238C10.3327 119.294 11.1491 121.265 12.6025 122.718C14.0558 124.171 16.0269 124.988 18.0822 124.988H111.076C113.132 124.988 115.103 124.171 116.556 122.718C118.009 121.265 118.826 119.294 118.826 117.238V73.3244H121.409C123.464 73.3244 125.435 72.5079 126.889 71.0546C128.342 69.6013 129.159 67.6302 129.159 65.5749V44.9095C129.159 42.8542 128.342 40.8831 126.889 39.4298C125.435 37.9765 123.464 37.16 121.409 37.16ZM76.2035 9.94629C77.2468 8.78061 78.5194 7.84283 79.9418 7.19166C81.3641 6.54048 82.9056 6.18993 84.4697 6.16195H84.8636C86.6427 6.16383 88.4033 6.52218 90.0415 7.21584C91.6798 7.9095 93.1624 8.9244 94.4019 10.2006C95.6414 11.4768 96.6126 12.9885 97.2582 14.6463C97.9037 16.3041 98.2105 18.0744 98.1605 19.8528C98.1325 21.4168 97.7819 22.9583 97.1308 24.3807C96.4796 25.803 95.5418 27.0757 94.3761 28.1189C86.5685 35.0289 73.0198 36.6498 67.2528 37.0244C67.6532 31.3027 69.2677 17.7862 76.2035 9.94629ZM30.998 19.8528C30.948 18.0744 31.2548 16.3041 31.9004 14.6463C32.5459 12.9885 33.5171 11.4768 34.7566 10.2006C35.9961 8.9244 37.4787 7.9095 39.117 7.21584C40.7552 6.52218 42.5159 6.16383 44.2949 6.16195H44.6888C46.2529 6.18993 47.7944 6.54048 49.2168 7.19166C50.6391 7.84283 51.9118 8.78061 52.955 9.94629C59.8714 17.7539 61.4859 31.3027 61.8605 37.0696C56.1194 36.695 42.5706 35.0741 34.7372 28.1641C33.5742 27.1117 32.6416 25.83 31.9981 24.3996C31.3546 22.9692 31.0141 21.4211 30.998 19.8528ZM5.16634 65.5749V44.9095C5.16634 44.2244 5.4385 43.5674 5.92293 43.0829C6.40737 42.5985 7.06441 42.3263 7.74951 42.3263H61.9961V68.158H7.74951C7.06441 68.158 6.40737 67.8859 5.92293 67.4015C5.4385 66.917 5.16634 66.26 5.16634 65.5749ZM15.499 117.238V73.3244H61.9961V119.821H18.0822C17.3971 119.821 16.7401 119.549 16.2556 119.065C15.7712 118.58 15.499 117.923 15.499 117.238ZM113.659 117.238C113.659 117.923 113.387 118.58 112.903 119.065C112.418 119.549 111.761 119.821 111.076 119.821H67.1624V73.3244H113.659V117.238ZM123.992 65.5749C123.992 66.26 123.72 66.917 123.236 67.4015C122.751 67.8859 122.094 68.158 121.409 68.158H67.1624V42.3263H121.409C122.094 42.3263 122.751 42.5985 123.236 43.0829C123.72 43.5674 123.992 44.2244 123.992 44.9095V65.5749Z" fill="black"/>
</svg>
